<svg class="rose" viewBox="0 0 1024 1024" style="display: inline-block; stroke: currentcolor; fill: currentcolor; width: 30px; height: 30px;"><path d="M529.34 193.74c-3.141-6.269-9.517-10.498-16.88-10.498s-13.739 4.228-16.831 10.389l-0.049 0.108-54.76 110.94-122.44 17.8c-9.126 1.405-16.033 9.202-16.033 18.612 0 5.237 2.139 9.974 5.591 13.386l0.002 0.002 88.6 86.36-20.92 122c-0.172 0.955-0.27 2.055-0.27 3.178 0 10.394 8.426 18.82 18.82 18.82 3.2 0 6.213-0.799 8.851-2.207l-0.101 0.049 109.5-57.56 109.58 57.58c2.537 1.359 5.55 2.158 8.75 2.158 10.394 0 18.82-8.426 18.82-18.82 0-1.123-0.098-2.222-0.287-3.291l0.017 0.113-20.92-122 88.6-86.36c3.454-3.414 5.593-8.151 5.593-13.388 0-9.41-6.907-17.208-15.927-18.599l-0.105-0.013-122.54-17.82zM595 420.88c-3.512 3.422-5.69 8.198-5.69 13.483 0 1.122 0.098 2.222 0.287 3.29l-0.017-0.113 16.14 94.1-84.5-44.44c-2.54-1.363-5.556-2.163-8.76-2.163s-6.22 0.8-8.861 2.212l0.101-0.049-84.52 44.42 16.14-94.1c0.172-0.955 0.27-2.054 0.27-3.177 0-5.285-2.178-10.061-5.686-13.479l-0.004-0.004-68.38-66.64 94.48-13.72c6.249-0.937 11.422-4.834 14.111-10.192l0.049-0.108 42.26-85.62 42.26 85.62c2.742 5.471 7.923 9.369 14.077 10.287l0.103 0.013 94.48 13.74zM512.46 99.42c-170.62 0-309.42 138.8-309.42 309.42s138.8 309.42 309.42 309.42 309.42-138.8 309.42-309.42-138.8-309.42-309.42-309.42zM512.46 680.64c-149.86 0-271.8-122-271.8-271.78s122-271.78 271.8-271.78 271.78 122 271.78 271.78-121.92 271.78-271.78 271.78zM901.54 373.040c7.119-11.038 11.349-24.522 11.349-38.993 0-25.933-13.585-48.692-34.027-61.55l-0.302-0.177c-19.22-12-33.74-42-31.080-64.54 0.32-2.562 0.503-5.526 0.503-8.533 0-37.403-28.262-68.206-64.596-72.218l-0.326-0.029c-22.5-2.4-48.66-23.28-56-44.68-10.11-28.768-37.044-49.022-68.708-49.022-8.731 0-17.103 1.54-24.858 4.363l0.505-0.161c-21.3 7.6-54 0.14-69.84-16-13.175-13.312-31.45-21.555-51.65-21.555s-38.475 8.243-51.644 21.549l-0.006 0.006c-16 16-48.54 23.54-69.84 16-7.27-2.678-15.666-4.228-24.424-4.228-31.674 0-58.614 20.266-68.56 48.539l-0.156 0.509c-7.34 21.4-33.52 42.26-56 44.66-36.66 4.042-64.92 34.844-64.92 72.247 0 3 0.182 5.958 0.535 8.863l-0.035-0.349c2.66 22.46-11.86 52.62-31.080 64.56-20.757 13.032-34.353 35.799-34.353 61.742 0 14.474 4.232 27.959 11.526 39.286l-0.173-0.287c12.14 19.080 12.14 52.56 0 71.64-7.114 11.038-11.341 24.518-11.341 38.987 0 25.933 13.582 48.693 34.020 61.556l0.301 0.177c19.22 12 33.74 42 31.080 64.54-0.32 2.562-0.503 5.526-0.503 8.533 0 37.403 28.262 68.206 64.596 72.218l0.326 0.029c22.5 2.4 48.66 23.28 56 44.66 0.3 0.9 0.64 1.78 0.98 2.66l-71.22 184c-0.801 2.012-1.265 4.343-1.265 6.783 0 10.394 8.426 18.82 18.82 18.82 0.621 0 1.236-0.030 1.842-0.089l-0.077 0.006 108.28-10.26 73.18 80.44c3.458 3.824 8.438 6.216 13.976 6.216 7.924 0 14.704-4.897 17.479-11.829l0.045-0.127 55.8-144.22 50.3 140.62c2.682 7.334 9.6 12.474 17.718 12.474 5.345 0 10.17-2.228 13.596-5.807l0.007-0.007 75.18-78.58 108 12.98c0.684 0.088 1.476 0.139 2.28 0.139 10.394 0 18.82-8.426 18.82-18.82 0-2.273-0.403-4.452-1.141-6.469l0.042 0.131-70.28-196.2c10-18.68 32.86-35.38 52.82-37.52 36.657-4.044 64.916-34.845 64.916-72.246 0-2.986-0.18-5.93-0.53-8.822l0.034 0.348c-2.66-22.46 11.86-52.62 31.080-64.56 20.744-13.035 34.329-35.794 34.329-61.727 0-14.471-4.231-27.955-11.522-39.28l0.173 0.287c-12.12-19.12-12.12-52.6 0.020-71.68zM435.78 970l-59.020-64.88c-3.455-3.749-8.389-6.089-13.869-6.089-0.645 0-1.282 0.032-1.91 0.096l0.079-0.006-87.32 8.28 52.76-134.96c2.411 1.619 5.214 3.236 8.126 4.667l0.434 0.193c9.193 4.569 20.020 7.243 31.473 7.243 8.755 0 17.145-1.563 24.906-4.424l-0.499 0.161c21.3-7.6 54-0.14 69.84 16 9.224 9.376 20.983 16.232 34.167 19.458l0.493 0.102zM667.78 898c-0.674-0.086-1.454-0.135-2.245-0.135-5.343 0-10.165 2.229-13.588 5.808l-0.007 0.007-60.64 63.38-54.88-153.060 0.14-0.4c10.805-3.858 20.022-9.831 27.551-17.471l0.009-0.009c15.9-16 48.54-23.54 69.84-16 7.262 2.7 15.652 4.263 24.407 4.263 11.452 0 22.28-2.674 31.893-7.431l-0.421 0.188c5.563-2.708 10.357-5.806 14.727-9.401l-0.127 0.101 50.34 140.54zM869.78 464.9c3.423 5.316 5.458 11.808 5.458 18.774 0 12.495-6.544 23.462-16.393 29.66l-0.145 0.085c-31.64 19.64-53 64-48.62 100.96 0.153 1.231 0.241 2.655 0.241 4.1 0 18.024-13.616 32.867-31.123 34.806l-0.158 0.014c-37.020 4-75.52 34.64-87.62 69.86-4.874 13.863-17.854 23.622-33.113 23.622-4.204 0-8.236-0.741-11.97-2.099l0.244 0.077c-35.080-12.5-83.060-1.54-109.24 24.94-6.35 6.414-15.156 10.385-24.89 10.385s-18.54-3.971-24.887-10.382l-0.003-0.003c-18.86-19.080-49.020-30-77.54-30-0.247-0.002-0.54-0.004-0.833-0.004-11.054 0-21.666 1.891-31.531 5.368l0.664-0.204c-3.491 1.281-7.523 2.022-11.727 2.022-15.259 0-28.239-9.759-33.038-23.377l-0.075-0.245c-12-35.22-50.58-66-87.6-69.86-17.665-1.952-31.281-16.796-31.281-34.82 0-1.445 0.088-2.869 0.258-4.268l-0.017 0.168c4.38-36.98-16.98-81.32-48.62-100.96-9.995-6.288-16.539-17.258-16.539-29.758 0-6.97 2.035-13.464 5.543-18.921l-0.084 0.139c20-31.42 20-80.64 0-112-3.423-5.316-5.458-11.808-5.458-18.774 0-12.495 6.544-23.462 16.393-29.66l0.145-0.085c31.64-19.64 53-64 48.62-100.96-0.166-1.279-0.26-2.759-0.26-4.26 0-18.024 13.616-32.867 31.122-34.806l0.158-0.014c37.020-4 75.52-34.64 87.6-69.86 4.874-13.863 17.854-23.622 33.113-23.622 4.204 0 8.236 0.741 11.97 2.099l-0.244-0.077c35.080 12.5 83.060 1.54 109.24-24.94 6.35-6.414 15.156-10.385 24.89-10.385s18.54 3.971 24.887 10.382l0.003 0.003c26.18 26.48 74.16 37.44 109.26 24.94 3.491-1.281 7.523-2.022 11.727-2.022 15.259 0 28.239 9.759 33.038 23.377l0.075 0.245c12 35.22 50.58 66 87.62 69.86 17.628 1.99 31.202 16.815 31.202 34.811 0 1.448-0.088 2.875-0.259 4.277l0.017-0.168c-4.38 36.98 16.98 81.32 48.62 100.96 9.993 6.283 16.538 17.25 16.538 29.746 0 6.967-2.034 13.458-5.541 18.913l0.084-0.139c-19.9 31.42-19.9 80.64 0.080 112.060z"></path></svg>