<svg class="purple" viewBox="0 0 1181 1024">
    <path d="M597.665 174.986h-537.899c-10.784 0-19.362 9.045-18.79 19.814l43.032 810.833c0.53 9.99 8.786 17.819 18.79 17.819h451.835c10.005 0 18.26-7.829 18.79-17.819l43.032-810.833c0.572-10.769-8.006-19.814-18.79-19.814zM577.823 212.617l-41.034 773.202h-416.148l-41.034-773.202h498.216z"></path>
    <path d="M637.51 81.591h-617.588c-10.392 0-18.816 8.424-18.816 18.816v93.395c0 10.392 8.424 18.816 18.816 18.816h617.588c10.392 0 18.816-8.424 18.816-18.816v-93.395c0-10.392-8.424-18.816-18.816-18.816zM618.693 119.224v55.762h-579.955v-55.762h579.955z"></path>
    <path d="M433.985 0.010c10.213 0 18.525 8.136 18.809 18.281l0.007 0.536v81.581c0 10.392-8.424 18.816-18.816 18.816-10.213 0-18.525-8.136-18.809-18.281l-0.007-0.536-0.002-62.765h-172.903v62.765c0 10.213-8.136 18.525-18.281 18.809l-0.536 0.007c-10.213 0-18.525-8.136-18.809-18.281l-0.007-0.536v-81.581c0-10.213 8.136-18.525 18.281-18.809l0.536-0.007h210.538z"></path>
    <path d="M207.27 264.457c10.213 0 18.525 8.136 18.809 18.281l0.007 0.536v581.668c0 10.392-8.424 18.816-18.816 18.816-10.213 0-18.525-8.136-18.809-18.281l-0.007-0.536v-581.668c0-10.392 8.424-18.816 18.816-18.816z"></path>
    <path d="M328.716 264.457c10.213 0 18.525 8.136 18.809 18.281l0.007 0.536v581.668c0 10.392-8.424 18.816-18.816 18.816-10.213 0-18.525-8.136-18.809-18.281l-0.007-0.536v-581.668c0-10.392 8.424-18.816 18.816-18.816z"></path>
    <path d="M446.775 264.457c10.213 0 18.525 8.136 18.809 18.281l0.007 0.536v581.668c0 10.392-8.424 18.816-18.816 18.816-10.213 0-18.525-8.136-18.809-18.281l-0.007-0.536v-581.668c0-10.392 8.424-18.816 18.816-18.816z"></path>
</svg>