<svg xmlns="http://www.w3.org/2000/svg" xmlns:xlink="http://www.w3.org/1999/xlink" width="32.656" height="32.654" viewBox="0 0 32.656 32.654">
  <defs>
    <linearGradient id="linear-gradient" x1="0.5" x2="0.5" y2="1" gradientUnits="objectBoundingBox">
      <stop offset="0" stop-color="#c4277c"/>
      <stop offset="1" stop-color="#0c7bbe"/>
    </linearGradient>
  </defs>
  <path id="np_car_888653_000000" d="M45.156,31.625l-1.088-5.878c-.653-2.829-3.592-2.829-5.225-2.829h-13.5c-1.633,0-4.68,0-5.225,2.831l-1.088,5.876a16.04,16.04,0,0,1-2.394,4.356,3.034,3.034,0,0,0-.872,2.176v8.709a3.275,3.275,0,0,0,3.266,3.266h1.088v2.721a2.721,2.721,0,0,0,5.441,0l0-2.721H38.625v2.721a2.721,2.721,0,0,0,5.441,0l0-2.721h1.088a3.275,3.275,0,0,0,3.266-3.266V38.156a3.039,3.039,0,0,0-.872-2.178A10.8,10.8,0,0,1,45.156,31.625Zm-5.225-4.353,1.525,7.619H22.732l1.525-7.619ZM22.3,42.511a2.178,2.178,0,1,1,2.178-2.178A2.184,2.184,0,0,1,22.3,42.511Zm19.594,0a2.178,2.178,0,1,1,2.178-2.178A2.184,2.184,0,0,1,41.89,42.511Z" transform="translate(-15.766 -22.918)" fill="url(#linear-gradient)"/>
</svg>
