<svg class="grey" viewBox="0 0 1181 1024">
    <path
        d="M1043.719 323.286h-906.609c-75.717 0-137.098 61.381-137.098 137.098v333.653c0 12.030 9.753 21.783 21.783 21.783h1137.24c12.030 0 21.783-9.753 21.783-21.783v-333.653c0-75.717-61.381-137.098-137.098-137.098zM1043.719 366.853l1.547 0.013c50.943 0.826 91.986 42.38 91.986 93.52v311.87h-1093.676v-311.87c0-51.656 41.878-93.532 93.535-93.532h906.609z">
    </path>
    <path
        d="M170.955 468.18c-56.204 0-101.766 45.562-101.766 101.766s45.562 101.766 101.766 101.766c56.204 0 101.766-45.562 101.766-101.766s-45.562-101.766-101.766-101.766zM170.955 511.746c32.143 0 58.2 26.057 58.2 58.2s-26.057 58.2-58.2 58.2c-32.143 0-58.2-26.057-58.2-58.2s26.057-58.2 58.2-58.2z">
    </path>
    <path
        d="M1008.144 479.712c-56.204 0-101.766 45.562-101.766 101.766s45.562 101.766 101.766 101.766c56.204 0 101.766-45.562 101.766-101.766s-45.562-101.766-101.766-101.766zM1008.144 523.278c32.143 0 58.2 26.057 58.2 58.2s-26.057 58.2-58.2 58.2c-32.143 0-58.2-26.057-58.2-58.2s26.057-58.2 58.2-58.2z">
    </path>
    <path
        d="M224.058 772.255h-133.374c-27.315 0-49.459 22.143-49.459 49.459v152.055c0 27.315 22.143 49.459 49.459 49.459h133.374c27.315 0 49.459-22.143 49.459-49.459v-152.055c0-27.315-22.143-49.459-49.459-49.459zM90.684 815.821h133.374c3.254 0 5.893 2.638 5.893 5.893v152.055c0 3.254-2.638 5.893-5.893 5.893h-133.374c-3.254 0-5.893-2.638-5.893-5.893v-152.055c0-3.254 2.638-5.893 5.893-5.893z">
    </path>
    <path
        d="M1090.145 772.255h-133.374c-27.315 0-49.459 22.143-49.459 49.459v152.055c0 27.315 22.143 49.459 49.459 49.459h133.374c27.315 0 49.459-22.143 49.459-49.459v-152.055c0-27.315-22.143-49.459-49.459-49.459zM956.771 815.821h133.374c3.254 0 5.893 2.638 5.893 5.893v152.055c0 3.254-2.638 5.893-5.893 5.893h-133.374c-3.254 0-5.893-2.638-5.893-5.893v-152.055c0-3.254 2.638-5.893 5.893-5.893z">
    </path>
    <path
        d="M865.531 0.865h-550.236c-47.297-0.006-89.767 28.977-107.003 73.026l-103 263.242c-5.59 14.286 4.945 29.72 20.286 29.72h929.672c15.341 0 25.875-15.434 20.286-29.72l-103-263.242c-17.235-44.048-59.705-73.032-107.006-73.026zM865.537 44.431l1 0.007c28.961 0.399 54.851 18.293 65.429 45.327l91.37 233.521h-865.845l91.373-233.522c10.7-27.345 37.065-45.338 66.429-45.334h550.244z">
    </path>
    <path
        d="M785.113 230.117c68.986 0 130.762 42.719 155.115 107.263 4.247 11.256-1.435 23.823-12.691 28.070-11.058 4.172-23.383-1.239-27.839-12.104l-0.231-0.587c-17.953-47.583-63.496-79.076-114.354-79.076-50.349 0-95.489 30.866-113.807 77.654l-0.547 1.423c-4.247 11.256-16.814 16.938-28.070 12.691s-16.938-16.814-12.691-28.070c24.353-64.544 86.129-107.263 155.115-107.263z">
    </path>
</svg>