<svg id="np_plane_3004606_000000" xmlns="http://www.w3.org/2000/svg" xmlns:xlink="http://www.w3.org/1999/xlink" width="37.068" height="37.145" viewBox="0 0 37.068 37.145">
  <defs>
    <linearGradient id="linear-gradient" x1="0.5" x2="0.5" y2="1" gradientUnits="objectBoundingBox">
      <stop offset="0" stop-color="#c4277c"/>
      <stop offset="1" stop-color="#0c7bbe"/>
    </linearGradient>
  </defs>
  <path id="Tracé_7421" data-name="Tracé 7421" d="M28.053,53.622l6.832,3.209,3.352,6.689a1.36,1.36,0,0,0,.969.747,1.685,1.685,0,0,1,.286.048,1.378,1.378,0,0,0,.937-.365L42.574,61.8A1.333,1.333,0,0,0,42.94,60.6l-.89-5.164,6.927-6.927,6.879,12.233a1.505,1.505,0,0,0,1.017.794,2.064,2.064,0,0,1,.238.048,1.378,1.378,0,0,0,.937-.365l2.145-2.145a1.559,1.559,0,0,0,.413-1.255L56.19,41.356l7.022-7.022a4.417,4.417,0,0,0-.143-5.958,4.058,4.058,0,0,0-2.923-1.207,3.955,3.955,0,0,0-2.923,1.207L50.248,35.4,33.677,30.982h-.191a1.378,1.378,0,0,0-.937.365L30.4,33.492a1.245,1.245,0,0,0-.365,1.16,1.487,1.487,0,0,0,.747,1.064l12.281,6.927L36.14,49.57l-5.068-.89h-.286a1.181,1.181,0,0,0-.89.365l-2.272,2.272a1.333,1.333,0,0,0-.365,1.207,1.536,1.536,0,0,0,.794,1.1Z" transform="translate(-27.23 -27.169)" fill="url(#linear-gradient)"/>
</svg>
