<svg class="blue" viewBox="0 0 1372 1024">
    <path
        d="M675.116 78.315c-257.283 0-465.853 208.569-465.853 465.853s208.569 465.853 465.853 465.853c257.283 0 465.853-208.569 465.853-465.853s-208.569-465.853-465.853-465.853zM675.116 128.952c229.317 0 415.216 185.898 415.216 415.216s-185.898 415.216-415.216 415.216c-229.317 0-415.216-185.898-415.216-415.216s185.898-415.216 415.216-415.216z">
    </path>
    <path
        d="M675.116 216.367c-181.039 0-327.801 146.761-327.801 327.801s146.761 327.801 327.801 327.801c181.039 0 327.801-146.761 327.801-327.801s-146.761-327.801-327.801-327.801zM675.116 267.004c153.073 0 277.164 124.090 277.164 277.164s-124.090 277.164-277.164 277.164c-153.073 0-277.164-124.090-277.164-277.164s124.090-277.164 277.164-277.164z">
    </path>
    <path
        d="M25.332 0.121c-13.983 0-25.319 11.335-25.319 25.319v967.975c0 13.983 11.335 25.319 25.319 25.319h71.543c13.65-0.392 24.598-11.577 24.598-25.319v-407.753l0.020-0.135c0.145-1.079 0.368-2.345 0.68-3.741 0.892-3.992 2.27-7.957 4.132-11.443 4.374-8.19 10.226-12.331 20.826-12.561l0.948-0.010c13.983 0 25.319-11.335 25.319-25.319v-335.4c0-23.862-4.62-47.499-13.604-69.606-11.997-29.484-26.692-56.482-44.588-78.32-25.271-30.836-55.174-49.007-89.872-49.007zM50.65 58.263l0.807 0.485c23.027 14.067 44.343 45.784 61.428 87.774l0.738 1.856c6.035 15.506 9.136 32.015 9.136 48.675l-0.003 313.931-1.018 0.341c-17.758 6.107-31.233 18.559-40.1 35.162-4.204 7.872-7.057 16.078-8.885 24.255-0.64 2.864-1.112 5.553-1.445 8.023l-0.235 1.92c-0.084 0.771-0.142 1.431-0.179 1.97l-0.044 0.86-0.011 0.431-0.004 384.149h-20.185v-909.832z">
    </path>
    <path
        d="M1095.184 247.69l0.014 1.629c0.737 44.444 30.889 81.722 71.827 93.214l1.367 0.37v653.191c0 13.983 11.335 25.319 25.319 25.319h80.979c13.65-0.392 24.598-11.577 24.598-25.319v-653.226l1.022-0.272c41.707-11.569 72.159-49.719 72.159-94.906v-219.57l-0.012-0.849c-0.781-27.794-39.894-34.15-49.207-7.505l-31.007 88.703-35.090-90.229c-9.166-21.823-40.95-20.18-47.627 2.821l-25.333 87.258-40.585-90.554c-11.167-24.914-48.423-16.947-48.423 10.355v219.57zM1237.322 106.936l32.877 84.532c8.915 21.205 39.535 20.438 47.212-1.528l4.42-12.648v70.399c0 26.137-20.973 47.433-47.063 47.856l-1.005 0.007-0.729 0.016c-13.563 0.494-24.384 11.642-24.384 25.301v649.905h-29.621v-649.905c0-13.742-10.948-24.927-24.598-25.308l-1.61-0.018c-26.031-0.474-46.99-21.719-47-47.864l-0.003-101.174 20.365 45.434c9.638 21.504 40.849 19.334 47.419-3.297l23.72-81.709z">
    </path>
</svg>