<svg class="rose" viewBox="0 0 1181 1024">
    <path
        d="M1172.576 454.023l-235.522-186.042v-123.68c-0.013-11.996-9.681-21.718-21.61-21.73h-81.252c-11.939-0-21.621 9.725-21.633 21.73v25.325l-208.791-164.961c-7.828-6.219-18.879-6.219-26.707 0l-568.808 449.358c-7.242 5.733-10.076 15.452-7.060 24.21s11.22 14.633 20.437 14.636h59.618v509.378c0 12.014 9.686 21.754 21.633 21.754h975.067c11.948 0 21.633-9.739 21.633-21.754v0-509.355h59.618c9.217-0.002 17.421-5.877 20.437-14.636s0.182-18.477-7.060-24.21v-0.023zM1078.017 449.384h-21.726v531.085h-931.754v-531.085h-40.407l506.284-399.984 230.402 181.984c6.514 5.139 15.373 6.089 22.817 2.447s12.17-11.237 12.169-19.562v-48.215h38.008v112.502c0.007 6.673 3.059 12.973 8.28 17.092l194.608 153.736h-18.681z">
    </path>
</svg>