<svg class="rose" viewBox="0 0 1024 1024"
    style="display: inline-block; stroke: currentcolor; fill: currentcolor; width: 30px; height: 30px;">
    <path
        d="M539.4 98.66h-383.64c-10.352 0.011-18.74 8.406-18.74 18.76v0 263.040c0 0.006 0 0.013 0 0.020 0 10.35 8.39 18.74 18.74 18.74 0.007 0 0.014 0 0.021 0h383.619c10.354 0 18.749-8.388 18.76-18.739v-263.081c0-10.35-8.39-18.74-18.74-18.74-0.007 0-0.014 0-0.021 0h0.001zM174.52 361.72v-225.56h346.14v225.56zM347.58 535.52c-6.74 0-19.28 0-52.58 56.7-12 20.32-32 58.26-32 84.18 0 46.679 37.841 84.52 84.52 84.52s84.52-37.841 84.52-84.52v0c0-26-20-63.88-32-84.18-33.18-56.7-45.72-56.7-52.46-56.7zM347.58 723.52c-25.955-0.034-46.986-21.065-47.020-47.017v-0.003c0-21.84 30-73.64 47.020-96.12 16.96 22.48 47.020 74.28 47.020 96.12-0.080 25.92-21.093 46.906-47.017 46.94h-0.003zM1019.9 302.98c-3.463-4.328-8.744-7.075-14.667-7.075-4.44 0-8.518 1.544-11.729 4.124l0.036-0.028-164.42 131.6c-4.305 3.465-7.037 8.733-7.040 14.64v0 394.6c-0.764 25.372-21.514 45.649-47 45.649s-46.236-20.277-46.998-45.579l-0.002-0.070v-197.3c-0.057-46.656-37.864-84.463-84.515-84.52h-0.005c-1.126 0.003-2.226 0.105-3.294 0.297l0.114-0.017v-433.48c-0.102-69.454-56.384-125.729-125.831-125.82h-334.009c-69.413 0.148-125.638 56.401-125.74 125.81v751.21c-30.658 2.043-54.757 27.39-54.8 58.376v69.844c0 0.006 0 0.013 0 0.020 0 10.35 8.39 18.74 18.74 18.74 0.007 0 0.014 0 0.021 0h657.659c0.006 0 0.013 0 0.020 0 10.35 0 18.74-8.39 18.74-18.74 0 0 0 0 0 0v0-69.86c-0.043-30.99-24.142-56.337-54.623-58.371l-0.177-0.009v-280.8c0.954 0.175 2.054 0.277 3.177 0.28h0.003c25.955 0.034 46.986 21.065 47.020 47.017v197.303c0 46.679 37.841 84.52 84.52 84.52s84.52-37.841 84.52-84.52v0-353.54c10.159 25.57 34.688 43.318 63.363 43.318 37.555 0 68-30.445 68-68 0-33.572-24.329-61.461-56.317-67l-0.405-0.058 82.74-66.2c4.295-3.467 7.018-8.731 7.018-14.631 0-4.455-1.553-8.547-4.147-11.765l0.028 0.036zM92.3 125.82c0.057-48.755 39.565-88.263 88.315-88.32h334.005c48.755 0.057 88.263 39.565 88.32 88.315v751.065h-510.64zM657.66 935.4v51.1h-620.16v-51.1c0.011-11.604 9.416-21.009 21.019-21.020h578.141c11.596 0.023 20.989 9.423 21 21.019v0.001zM953.66 462.68c-0.057 16.846-13.726 30.48-30.58 30.48-16.889 0-30.58-13.691-30.58-30.58 0-16.875 13.668-30.557 30.538-30.58h0.002c16.894 0.023 30.58 13.723 30.58 30.62 0 0.021 0 0.042 0 0.063v-0.003z">
    </path>
</svg>