<svg class="rose" viewBox="0 0 427 1024"
    style="display: inline-block; stroke: currentcolor; fill: currentcolor; width: 30px; height: 30px;">
    <path
        d="M276.641 3.492l-1.58 1.020c-0.557 0.367-1.211 0.803-1.96 1.309-2.636 1.783-5.663 3.912-9.048 6.39l-2.756 2.036c-8.814 6.573-18.457 14.33-28.736 23.293-32.285 28.153-64.51 62.559-94.561 103.467-77.854 105.978-127.649 236.328-135.927 392.149-0.721 13.585-0.574 27.408 0.409 41.455 5.905 84.431 41.164 173.704 96.12 263.125 21.004 34.176 43.487 66.014 65.981 94.702l2.76 3.504c6.842 8.645 13.237 16.423 19.059 23.263l2.239 2.617c0.957 1.112 1.863 2.156 2.715 3.131l2.402 2.726c0.504 0.566 0.888 0.993 1.148 1.279 6.165 6.777 16.309 8.142 24.045 3.235l1.314-0.847c1.864-1.219 4.553-3.034 7.97-5.432l2.696-1.907c6.374-4.545 13.326-9.755 20.727-15.611 24.104-19.074 48.193-41.161 70.716-66.057 46.618-51.528 80.404-108.189 95.648-169.382 18.887-75.816 7.894-153.91-38.063-232.35l-1.403-2.377c-15.211-25.571-28.238-52.422-39.193-80.419-24.613-62.896-38.272-130.008-42.856-198.882-3.413-51.287-1.593-99.461 3.511-142.027l0.43-3.506c1.011-8.062 2.073-15.288 3.131-21.606l0.307-1.81c0.201-1.164 0.392-2.244 0.574-3.238l0.655-3.425c3.398-16.271-14.394-28.659-28.475-19.825zM261.447 62.418l-0.089 0.846c-4.417 42.010-5.768 88.694-2.475 138.168 4.826 72.519 19.248 143.379 45.365 210.119 11.259 28.771 24.588 56.453 40.101 82.908l1.8 3.047c42.035 70.666 51.968 139.365 35.285 206.336-13.57 54.473-44.249 105.923-87.021 153.2-21.026 23.24-43.597 43.937-66.153 61.785l-1.567 1.235c-4.677 3.673-9.14 7.053-13.347 10.132l-1.298 0.943-0.325-0.389c-5.38-6.418-11.237-13.63-17.468-21.577-21.657-27.62-43.325-58.303-63.529-91.178-52.056-84.703-85.221-168.673-90.63-246.013-0.877-12.533-1.007-24.813-0.37-36.825 7.872-148.18 55.004-271.557 128.662-371.824 28.34-38.577 58.678-70.97 88.955-97.371l1.574-1.367 2.53-2.175z">
    </path>
    <path
        d="M402.414 984.567c10.412 0 18.853 8.441 18.853 18.853 0 10.233-8.152 18.562-18.316 18.846l-0.537 0.007h-317.779c-10.412 0-18.853-8.441-18.853-18.853 0-10.233 8.152-18.562 18.316-18.846l0.537-0.007h317.779z">
    </path>
</svg>