<svg class="rose" viewBox="0 0 1026 1024" style="display: inline-block; stroke: currentcolor; fill: currentcolor; width: 30px; height: 30px;"><path d="M514 0.91h-0.574c-7.635 0.239-14.405 5.056-17.107 12.241l-49.727 132.219-109.568 59.642-39.986-59.008c-3.515-5.187-9.373-8.294-15.638-8.294l-52.138 0.008c-10.184 0.285-18.352 8.63-18.352 18.882v100.556l-150.205-10.401c-1.373-0.095-2.751-0.040-4.112 0.165l-38.6 5.8c-9.245 1.389-16.083 9.332-16.083 18.68v82.016c0.236 6.962 4.283 13.257 10.565 16.341l159.649 78.375 104.776 211.254-74.922 238.554c-3.097 9.86 2.305 20.378 12.122 23.605l307.2 101c1.904 0.626 3.896 0.945 5.9 0.945h97.564c7.683-0.236 14.487-5.107 17.159-12.354l37.043-100.448h109.93l103.576 42.205c7.667 3.124 16.474 0.892 21.727-5.506l107.762-131.255c5.896-7.642 5.087-18.553-1.961-25.238l-75.33-71.451 5.6-120.165 0.019-0.644c0.059-4.716-1.649-9.292-4.802-12.821l-54.641-61.156 130.776-159.899c2.76-3.374 4.268-7.6 4.268-11.959v-123.56c-0.25-8.195-5.764-15.328-13.686-17.599l-225.024-64.491-197.52-142.663c-3.219-2.325-7.089-3.577-11.060-3.577h-64.6zM572.492 38.69l195.922 141.488c1.596 1.050 3.343 1.853 5.182 2.38l214.514 61.477v102.020l-137.108 167.659c-5.499 7.175-5.15 17.287 0.911 24.071l60.257 67.444-5.64 121.091-0.019 0.632c-0.069 5.259 2.059 10.32 5.889 13.952l68.842 65.297-87.408 106.45-94.106-38.345c-2.263-0.922-4.684-1.397-7.128-1.397l-127.364 0.008c-7.683 0.228-14.487 5.099-17.159 12.345l-37.045 100.446h-80.806l-286.618-94.234 71.614-228.016c1.461-4.651 1.067-9.686-1.099-14.054l-111.319-224.414c-1.866-3.44-4.757-6.22-8.28-7.95l-154.835-76.013v-53.366l20.472-3.076 168.878 11.687c10.682 0.437 19.65-8.111 19.65-18.875v-101.91h22.69l43.982 64.906c5.455 8.050 16.129 10.644 24.669 5.995l131.391-71.535c3.696-2.188 6.543-5.574 8.059-9.606l47.595-126.559h45.416z"></path><path d="M554.2 221.6c-1.8 0-3.4 0-5.2 0s-3.4 0-5.2 0c-117.2 3.4-193 126-146.4 233.6l151.6 351 151.6-351c46.4-107.6-29.2-230.2-146.4-233.6zM549 448.6c-35.6 0-64.4-28.8-64.4-64.4s28.8-64.4 64.4-64.4c35.6 0 64.4 28.8 64.4 64.4s-29 64.4-64.4 64.4z"></path></svg>