<svg class="rose" viewBox="0 0 1186 1024" style="display: inline-block; stroke: currentcolor; fill: currentcolor; width: 30px; height: 30px;"><path d="M1177.878 454.081l-236.586-185.849v-123.552c-0.013-11.984-9.724-21.695-21.708-21.708h-81.619c-11.993-0-21.718 9.715-21.731 21.708v25.299l-209.735-164.79c-7.864-6.213-18.964-6.213-26.828 0l-571.378 448.892c-7.275 5.728-10.122 15.436-7.092 24.185s11.27 14.618 20.529 14.62h59.888v508.849c0 12.002 9.729 21.731 21.731 21.731h979.472c12.002 0 21.731-9.729 21.731-21.731v0-508.826h59.888c9.259-0.002 17.5-5.871 20.529-14.62s0.183-18.457-7.092-24.185v-0.023zM1082.892 449.448h-21.824v530.534h-935.964v-530.534h-40.589l508.571-399.569 231.443 181.795c6.543 5.134 15.442 6.083 22.921 2.444s12.225-11.225 12.224-19.542v-48.165h38.18v112.385c0.007 6.666 3.073 12.96 8.317 17.074l195.487 153.577h-18.766z"></path><path d="M641.202 801.593v-159.577c0-35.631-27.52-50.666-48.116-50.666-20.063 0-50.281 16.541-50.281 50.666v159.577h-48.189v-159.577c0-35.631-36.606-50.666-57.179-50.666s-52.58 16.541-52.58 52.172v158.071h-47.634v-261.468h46.221v24.095c17.24-17.406 41.455-24.158 65.954-24.095 29.121 0 51.508 8.134 68.072 30.722 22.079-23.167 47.885-30.722 80.504-30.722 26.087 0 44.572 9.453 59.121 24.095 21.082 21.082 25.174 41.701 25.174 70.313v167.060h-41.067z"></path><path d="M739.875 634.486v-34.241l77.819-90.353c7.622-9.082 10.819-15.522 10.819-25.183 0-15.499-9.058-26.040-25.16-26.040-12.58 0-25.484 6.441-25.484 26.643h-37.995c0-38.041 27.801-60.861 63.479-60.861 36.883 0 63.201 23.167 63.201 60.56 0 20.202-7.9 31.021-22.241 47.702l-58.22 67.579h80.368v34.241l-126.587-0.046z"></path></svg>